<?xml version="1.0" encoding="utf-8"?>
<!-- Generator: Adobe Illustrator 22.0.0, SVG Export Plug-In . SVG Version: 6.00 Build 0)  -->
<svg version="1.1" xmlns="http://www.w3.org/2000/svg" xmlns:xlink="http://www.w3.org/1999/xlink" x="0px" y="0px"
	 viewBox="0 0 800 600" style="enable-background:new 0 0 800 600;" xml:space="preserve">
<style type="text/css">
	.st0{fill:#424040;}
	.st1{fill:#B7B7B7;}
	.st2{font-family:'PingFangSC-Ultralight-GBpc-EUC-H';}
	.st3{font-size:23.8847px;}
	.st4{display:none;fill:#FCFCFC;}
	.st5{enable-background:new    ;}
	.st6{fill:#7E7E7E;}
	.st7{clip-path:url(#SVGID_2_);enable-background:new    ;}
	.st8{fill:#838383;}
	.st9{fill:#919191;}
	.st10{clip-path:url(#SVGID_4_);enable-background:new    ;}
	.st11{fill:#888888;}
	.st12{fill:#8D8D8D;}
	.st13{fill:#929292;}
	.st14{clip-path:url(#SVGID_6_);enable-background:new    ;}
	.st15{fill:#7F7F7F;}
	.st16{clip-path:url(#SVGID_8_);enable-background:new    ;}
	.st17{clip-path:url(#SVGID_10_);enable-background:new    ;}
	.st18{fill:#E2E2E2;}
	.st19{clip-path:url(#SVGID_12_);enable-background:new    ;}
	.st20{clip-path:url(#SVGID_14_);enable-background:new    ;}
	.st21{clip-path:url(#SVGID_16_);enable-background:new    ;}
	.st22{clip-path:url(#SVGID_18_);enable-background:new    ;}
	.st23{clip-path:url(#SVGID_20_);enable-background:new    ;}
	.st24{fill:#F9F9F9;}
	.st25{font-family:'PressStart2P-Regular';}
	.st26{font-size:45.5006px;}
	.st27{display:none;fill:#FCFAFA;}
	.st28{fill:#FCFAFA;}
	.st29{fill:#070704;}
</style>
<g id="Layer_2">
	<rect class="st0" width="800" height="600"/>
	<text transform="matrix(0.8187 0 0 1 368 403.541)" class="st1 st2 st3">est - 2019</text>
	<g transform="translate(0.000000,600.000000) scale(0.100000,-0.100000)">
		<path class="st4" d="M3062.6,5054.3c17.1-28.9,66.2-42.8,100.1-28.6c36.9,15.1,49.9,37.2,49.7,84.2c-0.1,25-7.1,40-26.2,54.9
			c-56.2,43.8-134,10.5-133.8-57.5C3052.5,5087.3,3057.6,5063.3,3062.6,5054.3z M3084.3,5155.4c64.8,60.2,156.1-30.4,100.4-100.6
			c-22.9-28.1-72.9-30.3-102-4.4C3055.6,5075.3,3055.4,5128.3,3084.3,5155.4z"/>
		<g>
			<g>
				<g class="st5">
					<g>
						<polygon class="st6" points="3265.5,4350.5 3265.5,4263.6 3263.3,4826.9 3263.3,4913.7 						"/>
					</g>
					<g class="st5">
						<defs>
							<path id="SVGID_1_" class="st5" d="M3724,4080.8V3994c0,33-0.3,70.4-1,111.8c-0.6,57.3-0.9,110.5-0.9,153.9l0,86.8
								c0-43.5,0.3-96.6,0.9-153.9C3723.7,4151.2,3724,4113.8,3724,4080.8z"/>
						</defs>
						<clipPath id="SVGID_2_">
							<use xlink:href="#SVGID_1_"  style="overflow:visible;"/>
						</clipPath>
						<g class="st7">
							<path class="st8" d="M3724,4080.8V3994c0,33-0.3,70.4-1,111.8c-0.6,57.3-0.9,110.5-0.9,153.9v86.8c0-43.5,0.3-96.6,0.9-153.9
								C3723.7,4151.2,3724,4113.8,3724,4080.8"/>
						</g>
					</g>
					<g>
						<polygon class="st6" points="4177.4,3826.9 4177.4,3740.1 4106.2,3780.2 4106.2,3867.1 						"/>
					</g>
					<g>
						<polygon class="st9" points="4486.6,4045.7 4486.6,3958.8 4485.6,3700.8 4485.6,3787.7 						"/>
					</g>
					<g>
						<polygon class="st6" points="3267.5,3787.1 3267.5,3700.3 3265.5,4263.6 3265.5,4350.5 						"/>
					</g>
					<g>
						<polygon class="st6" points="3344.8,3743.1 3344.8,3656.2 3267.5,3700.3 3267.5,3787.1 						"/>
					</g>
					<g class="st5">
						<defs>
							<path id="SVGID_3_" class="st5" d="M4106.2,3867.1v-86.8c-39.1,22.5-73.2,40.1-75.2,40.1s-4.5-123.1-4.9-273.8v86.8
								c0.4,150.7,3,273.8,4.9,273.8S4067.2,3889.6,4106.2,3867.1z"/>
						</defs>
						<clipPath id="SVGID_4_">
							<use xlink:href="#SVGID_3_"  style="overflow:visible;"/>
						</clipPath>
						<g class="st10">
							<path class="st8" d="M4106.2,3867.1v-86.8c-39.1,22.5-73.2,40.1-75.2,40.1c0,0-0.1,0-0.1-0.1v86.8c0,0.1,0.1,0.1,0.1,0.1
								C4033.1,3907.1,4067.2,3889.6,4106.2,3867.1"/>
							<path class="st11" d="M4031,3907v-86.8c0-0.1-0.1-0.1-0.1-0.3v86.8C4030.9,3906.9,4031,3907,4031,3907"/>
							<path class="st12" d="M4030.9,3906.8V3820c0-0.1-0.1-0.3-0.1-0.4v86.8C4030.9,3906.5,4030.9,3906.7,4030.9,3906.8"/>
							<path class="st13" d="M4030.8,3906.3v-86.8c-1.9-10.7-4.2-129.3-4.7-273v86.8C4026.6,3777,4028.9,3895.6,4030.8,3906.3"/>
						</g>
					</g>
					<g>
						<polygon class="st6" points="4178.2,3596.5 4178.2,3509.6 4177.4,3740.1 4177.4,3826.9 						"/>
					</g>
					<g>
						<polygon class="st9" points="4485.6,3787.7 4485.6,3700.8 4483.5,3443.8 4483.5,3530.6 						"/>
					</g>
					<g class="st5">
						<defs>
							<path id="SVGID_5_" class="st5" d="M3723.6,3528.8V3442c-165.4,94-335.7,189.8-378.8,214.2v86.8
								C3387.9,3718.6,3558.1,3622.8,3723.6,3528.8z"/>
						</defs>
						<clipPath id="SVGID_6_">
							<use xlink:href="#SVGID_5_"  style="overflow:visible;"/>
						</clipPath>
						<g class="st14">
							<path class="st8" d="M3723.6,3528.8V3442c-165.4,94-335.7,189.8-378.8,214.2v86.8C3387.9,3718.6,3558.1,3622.8,3723.6,3528.8
								"/>
						</g>
					</g>
					<g>
						<polygon class="st15" points="4483.5,3530.6 4483.5,3443.8 4338.9,3361.5 4338.9,3448.4 						"/>
					</g>
					<g class="st5">
						<defs>
							<path id="SVGID_7_" class="st5" d="M4186.2,3366v-86.8c-4,0-7.4,103.4-7.9,230.4v86.8C4178.8,3469.5,4182.2,3366,4186.2,3366
								z"/>
						</defs>
						<clipPath id="SVGID_8_">
							<use xlink:href="#SVGID_7_"  style="overflow:visible;"/>
						</clipPath>
						<g class="st16">
							<path class="st8" d="M4186.2,3366v-86.8c-4,0-7.4,103.4-7.9,230.4v86.8C4178.8,3469.5,4182.2,3366,4186.2,3366"/>
						</g>
					</g>
					<g class="st5">
						<defs>
							<path id="SVGID_9_" class="st5" d="M4338.9,3448.4v-86.8c-79.9-45.6-147.8-82.3-152.7-82.3v86.8
								C4191.1,3366.1,4259,3402.8,4338.9,3448.4z"/>
						</defs>
						<clipPath id="SVGID_10_">
							<use xlink:href="#SVGID_9_"  style="overflow:visible;"/>
						</clipPath>
						<g class="st17">
							<path class="st8" d="M4338.9,3448.4v-86.8c-79.9-45.6-147.8-82.3-152.7-82.3v86.8C4191.1,3366.1,4259,3402.8,4338.9,3448.4"
								/>
						</g>
					</g>
					<g>
						<polygon class="st6" points="4024.2,3359.6 4024.2,3272.7 3723.6,3442 3723.6,3528.8 						"/>
					</g>
					<g>
						<polygon class="st9" points="4026.1,3633.3 4026.1,3546.5 4024.2,3272.7 4024.2,3359.6 						"/>
					</g>
					<g>
						<path class="st18" d="M3553.6,5075.3c5.1,0,9.8-212.2,11.1-537.6l2.1-541.6l70.1-40.2c35.9-20.6,69.2-35.5,78.3-35.5
							c7.8,4.3,10.4,106.7,7.8,272.2c-1.5,145.7-1,264.9,1,264.9c3,0,68.1-35.2,145.3-77.3c344.8-188.8,554.2-303.3,585.3-317.9
							l32-16.7l-1-258l-2.1-257l-144.6-82.3c-79.9-45.6-147.8-82.3-152.7-82.3c-4,0-7.4,103.4-7.9,230.4l-0.8,230.4l-71.2,40.2
							c-39.1,22.5-73.2,40.1-75.2,40.1s-4.5-123.1-4.9-273.8l-2-273.8l-300.6,169.3c-165.4,94-335.7,189.8-378.8,214.2l-77.2,44.1
							l-2.1,563.3l-2.2,563.3l140.7,79.3C3480.8,5036.7,3548.7,5074.3,3553.6,5075.3z"/>
					</g>
				</g>
			</g>
		</g>
		<g>
			<g>
				<g class="st5">
					<g class="st5">
						<defs>
							<path id="SVGID_11_" class="st5" d="M4172.9,5016.4v-86.8c0,15.2,0,30.7-0.1,46.6c-0.1,23.6-0.1,46.5-0.1,68.5v86.8
								c0-22,0-44.9,0.1-68.5C4172.8,5047.2,4172.9,5031.6,4172.9,5016.4z"/>
						</defs>
						<clipPath id="SVGID_12_">
							<use xlink:href="#SVGID_11_"  style="overflow:visible;"/>
						</clipPath>
						<g class="st19">
							<path class="st8" d="M4172.9,5016.4v-86.8c0,15.2,0,30.7-0.1,46.6c-0.1,23.6-0.1,46.5-0.1,68.5v86.8c0-22,0-44.9,0.1-68.5
								C4172.8,5047.2,4172.9,5031.6,4172.9,5016.4"/>
						</g>
					</g>
					<g>
						<polygon class="st6" points="3713.3,4908.7 3713.3,4821.9 3712.3,5090.7 3712.3,5177.5 						"/>
					</g>
					<g>
						<polygon class="st6" points="4629.1,4685.5 4629.1,4598.7 4564.1,4635.9 4564.1,4722.8 						"/>
					</g>
					<g>
						<polygon class="st6" points="3714.4,4640.9 3714.4,4554.1 3713.3,4821.9 3713.3,4908.7 						"/>
					</g>
					<g class="st5">
						<defs>
							<path id="SVGID_13_" class="st5" d="M4484.8,4444.6v86.8c0,128.7,2.5,228.5,7.1,228.5c4.1,0,36.1-16.7,72.2-37.1v-86.8
								c-36.1,20.5-68.1,37.1-72.2,37.1C4487.3,4673.1,4484.8,4573.3,4484.8,4444.6z"/>
						</defs>
						<clipPath id="SVGID_14_">
							<use xlink:href="#SVGID_13_"  style="overflow:visible;"/>
						</clipPath>
						<g class="st20">
							<path class="st8" d="M4564.1,4722.8v-86.8c-36.1,20.5-68.1,37.1-72.2,37.1c-0.1,0-0.2-0.1-0.3-0.2v86.8
								c0.1,0.1,0.2,0.2,0.3,0.2C4496,4759.9,4528,4743.2,4564.1,4722.8"/>
							<path class="st11" d="M4491.6,4759.7v-86.8c-0.1-0.1-0.2-0.3-0.3-0.5v86.8C4491.3,4759.4,4491.5,4759.6,4491.6,4759.7"/>
							<path class="st12" d="M4491.2,4759.2v-86.8c-0.2-0.5-0.5-1.3-0.7-2.4v86.8C4490.8,4757.9,4491,4758.7,4491.2,4759.2"/>
							<path class="st13" d="M4490.5,4756.8V4670c-3.7-17.8-5.7-110-5.7-225.4v86.8C4484.8,4646.8,4486.8,4739,4490.5,4756.8"/>
						</g>
					</g>
					<g>
						<polygon class="st6" points="4083.1,4440.3 4083.1,4353.5 3714.4,4554.1 3714.4,4640.9 						"/>
					</g>
					<g class="st5">
						<defs>
							<path id="SVGID_15_" class="st5" d="M4485.1,4388.4v-86.8c0-132.5-2.2-156.7-11.9-156.7v86.8
								C4482.9,4231.8,4485.1,4256,4485.1,4388.4z"/>
						</defs>
						<clipPath id="SVGID_16_">
							<use xlink:href="#SVGID_15_"  style="overflow:visible;"/>
						</clipPath>
						<g class="st21">
							<path class="st13" d="M4485.1,4388.4v-86.8c0-89.1-1-129.2-4.6-145.9v86.8C4484.1,4259.2,4485.1,4299.3,4485.1,4388.4"/>
							<path class="st12" d="M4480.5,4242.5v-86.8c-0.6-2.7-1.2-4.8-1.9-6.4v86.8C4479.3,4237.7,4480,4239.8,4480.5,4242.5"/>
							<path class="st11" d="M4478.6,4236.1v-86.8c-0.4-1-0.9-1.7-1.4-2.3v86.8C4477.7,4234.4,4478.1,4235.2,4478.6,4236.1"/>
							<path class="st8" d="M4477.2,4233.8V4147c-1.2-1.5-2.5-2-4-2v86.8C4474.7,4231.8,4476,4232.3,4477.2,4233.8"/>
						</g>
					</g>
					<g class="st5">
						<defs>
							<path id="SVGID_17_" class="st5" d="M4473.2,4231.8v-86.8c-14.4,4.1-187.7,98-390.1,208.5v86.8
								C4285.5,4329.8,4458.9,4235.8,4473.2,4231.8z"/>
						</defs>
						<clipPath id="SVGID_18_">
							<use xlink:href="#SVGID_17_"  style="overflow:visible;"/>
						</clipPath>
						<g class="st22">
							<path class="st8" d="M4473.2,4231.8v-86.8c-14.4,4.1-187.7,98-390.1,208.5v86.8C4285.5,4329.8,4458.9,4235.8,4473.2,4231.8"
								/>
						</g>
					</g>
					<g>
						<polygon class="st6" points="4634.2,4156.8 4634.2,4069.9 4629.1,4598.7 4629.1,4685.5 						"/>
					</g>
					<g>
						<polygon class="st15" points="4947.6,3798.4 4947.6,3711.6 4799.9,3626.3 4799.9,3713.2 						"/>
					</g>
					<g>
						<path class="st18" d="M4176.6,5349.7c4,0,88.2-47,546.2-305.3l215.5-121.2l5.1-562.4l4.1-562.3l-147.7-85.3
							c-81.8-46.5-151.6-85.3-154.7-85.3c-4,0-8.9,238.3-11,528.9l-5,528.8l-65.1,37.2c-36.1,20.5-68.1,37.1-72.2,37.1
							c-5,0-7.6-120.2-7-267c0.9-225.1,0.2-261.2-11.6-261.2c-14.4,4.1-187.7,98-390.1,208.5l-368.7,200.6l-1.1,267.8l-1,268.8
							l145.7,83.2c80.8,45.6,150.7,85.3,154.6,86.2c5.1,0,9.5-108.5,10-242.1l0.9-246.2l67.1-38.2c38.1-20.6,71.1-38.1,75.1-40.1
							c5.1,0,7.6,126.3,6.9,282.6C4172.1,5220.6,4173.7,5349.6,4176.6,5349.7z"/>
					</g>
					<g class="st5">
						<defs>
							<path id="SVGID_19_" class="st5" d="M4799.9,3713.2v-86.8c-81.8-46.5-151.6-85.3-154.7-85.3c-4,0-8.9,238.3-11,528.9v86.8
								c2.1-290.5,7-528.9,11-528.9C4648.2,3627.9,4718.1,3666.6,4799.9,3713.2z"/>
						</defs>
						<clipPath id="SVGID_20_">
							<use xlink:href="#SVGID_19_"  style="overflow:visible;"/>
						</clipPath>
						<g class="st23">
							<path class="st8" d="M4799.9,3713.2v-86.8c-81.8-46.5-151.6-85.3-154.7-85.3c-4,0-8.9,238.3-11,528.9v86.8
								c2.1-290.5,7-528.9,11-528.9C4648.2,3627.9,4718.1,3666.6,4799.9,3713.2"/>
						</g>
					</g>
				</g>
			</g>
		</g>
	</g>
</g>
<g id="Layer_1">
	<text transform="matrix(1 0 0 1 211.5068 376.5)" class="st24 st25 st26">H I D E N </text>
	<g transform="translate(0.000000,600.000000) scale(0.100000,-0.100000)">
		<path class="st27" d="M2622.5-3721.7c16.5-29.3,65.2-44.2,99.5-30.8c37.3,14.3,50.6,36.1,51.5,83.1c0.4,25-6.3,40.1-25,55.4
			c-55.2,45-133.8,13.4-135-54.6C2613.1-3688.5,2617.7-3712.6,2622.5-3721.7z M2646.3-3621.1c66,58.8,155.4-33.7,98.2-102.7
			c-23.5-27.6-73.5-28.7-102.1-2.2C2615.9-3700.5,2616.9-3647.6,2646.3-3621.1z"/>
		<path class="st28" d="M2875.5-5089.3c42.6-25.8,210.8-126.7,374.1-225.6l296.9-178.3l7.9,277.9c3.7,153,8.9,277.9,10.9,277.9
			s35.7-18.6,74.3-42.3l70.3-42.2l-4.1-234c-2.3-129-1.1-234,2.9-234.1c5-0.1,73.6,35.7,154.4,80.3l146.4,80.4l7.6,260.9l6.6,261.9
			l-31.7,17.6c-30.7,15.5-237.6,136.2-578.2,335.2c-76.2,44.3-140.6,81.5-143.6,81.5c-2,0-5.1-120.9-6.7-268.9
			c-1-168-5.8-271.9-11.9-275.8c-5.1-2.9-40.8,13.7-79.4,37.4l-69.3,42.2l9.7,549.9c5.8,331.9,5.6,548,0.6,546.1
			c-5-0.9-73.7-37.7-151.4-80.3l-142.4-77.5l-10.1-571.9l-10.1-571.9L2875.5-5089.3z"/>
		<path class="st29" d="M3628.7-4401.5c200-116.5,371.3-215.6,381.2-218.7c15.9-7.3,17.2,9.7,21.6,263.7
			c2.6,149,7.8,270.9,12.8,270.8c4-0.1,35.7-17.6,71.3-39.3l64.3-39.1l-6.4-537c-4.2-295-4.4-537-0.4-537.1
			c3-0.1,73.7,37.7,156.5,83.3l149.5,83.4l8,570.9l7,571l-212.8,127.8c-452.3,272-535.4,321.5-539.4,321.5
			c-3,0.1-7.3-130.9-10.1-290.9c-2.8-160-8.1-288.9-13-286.8c-4,2.1-36.6,20.6-74.3,42.3l-66.3,40.2l4.4,250
			c2.4,137,0.4,248-4.7,246.1c-4-0.9-74.7-39.7-156.5-84.3l-147.5-81.4l-4.8-273l-4.8-272L3628.7-4401.5z"/>
	</g>
</g>
</svg>
